#Comment line ignore any data following # character 
#Hierarchical Translation and Rotation (.htr) file 
[Header]	
#Header keywords are followed by a single value 
FileType HTR		#Single word string
DataType HTRS		#Translation followed by rotation and scale data
FileVersion 1		#integer
NumSegments 84		#integer
NumFrames 2		#integer
DataFrameRate 30		#integer, data frame rate in this file
EulerRotationOrder ZYX
CalibrationUnits mm
RotationUnits Degrees
GlobalAxisofGravity Y
BoneLengthAxis Y
ScaleFactor 1.00
[SegmentNames&Hierarchy]
#CHILD	PARENT
MASTER GLOBAL
root MASTER
chest root
L_mid_tent01 root
R_mid_tent01 root
spine01 root
Bip01_Neck chest
L_humerus chest
R_humerus chest
weapon_bone chest
Bip01_Head Bip01_Neck
eye_left_bone Bip01_Head
eye_right_bone Bip01_Head
L_forearm L_humerus
L_front_hand L_forearm
L_weapon_bone L_forearm
L_front_hand01_01 L_front_hand
L_front_hand02_01 L_front_hand
L_front_hand03_01 L_front_hand
L_front_hand01_02 L_front_hand01_01
L_front_hand02_02 L_front_hand02_01
L_front_hand03_02 L_front_hand03_01
R_forearm R_humerus
R_front_hand R_forearm
R_weapon_bone R_forearm
R_front_hand01_01 R_front_hand
R_front_hand02_01 R_front_hand
R_front_hand03_01 R_front_hand
R_front_hand01_02 R_front_hand01_01
R_front_hand02_02 R_front_hand02_01
R_front_hand03_02 R_front_hand03_01
null_rope01_connect L_mid_tent01
Rope1_Seg01 null_rope01_connect
Rope1_Seg02 Rope1_Seg01
Rope1_Seg03 Rope1_Seg02
Rope1_Seg04 Rope1_Seg03
Rope1_Seg05 Rope1_Seg04
Rope1_Seg06 Rope1_Seg05
Rope1_Seg07 Rope1_Seg06
Rope1_Seg09 Rope1_Seg07
L_mid_hand01 Rope1_Seg09
L_mid_hand02 Rope1_Seg09
L_mid_hand03 Rope1_Seg09
null_rope02_connect R_mid_tent01
Rope2_Seg01 null_rope02_connect
Rope2_Seg02 Rope2_Seg01
Rope2_Seg03 Rope2_Seg02
Rope2_Seg04 Rope2_Seg03
Rope2_Seg05 Rope2_Seg04
Rope2_Seg06 Rope2_Seg05
Rope2_Seg07 Rope2_Seg06
Rope2_Seg09 Rope2_Seg07
R_mid_hand01 Rope2_Seg09
R_mid_hand02 Rope2_Seg09
R_mid_hand03 Rope2_Seg09
spine02 spine01
spine03 spine02
pelvis spine03
null_rope03_connect pelvis
null_rope04_connect pelvis
Rope3_Seg01 null_rope03_connect
Rope3_Seg02 Rope3_Seg01
Rope3_Seg03 Rope3_Seg02
Rope3_Seg04 Rope3_Seg03
Rope3_Seg05 Rope3_Seg04
Rope3_Seg06 Rope3_Seg05
Rope3_Seg07 Rope3_Seg06
Rope3_Seg08 Rope3_Seg07
Rope3_Seg09 Rope3_Seg08
R_rear_hand01 Rope3_Seg09
R_rear_hand02 Rope3_Seg09
R_rear_hand03 Rope3_Seg09
Rope4_Seg01 null_rope04_connect
Rope4_Seg02 Rope4_Seg01
Rope4_Seg03 Rope4_Seg02
Rope4_Seg04 Rope4_Seg03
Rope4_Seg05 Rope4_Seg04
Rope4_Seg06 Rope4_Seg05
Rope4_Seg07 Rope4_Seg06
Rope4_Seg08 Rope4_Seg07
Rope4_Seg09 Rope4_Seg08
L_rear_hand01 Rope4_Seg09
L_rear_hand02 Rope4_Seg09
L_rear_hand03 Rope4_Seg09
[BasePosition]
#SegmentName Tx, Ty, Tz, Rx, Ry, Rz, BoneLength
MASTER 0.000000 0.000000 0.000000 -90.000000 0.000000 0.000000 10.000000 
root 0.000000 0.000000 0.000000 0.000000 0.000000 0.000000 10.000000 
chest 0.000000 0.000000 0.000000 0.000000 0.000000 0.000000 10.000000 
L_mid_tent01 0.000000 0.000000 0.000000 0.000000 0.000000 0.000000 10.000000 
R_mid_tent01 0.000000 0.000000 0.000000 0.000000 0.000000 0.000000 10.000000 
spine01 0.000000 0.000000 0.000000 0.000000 0.000000 0.000000 10.000000 
Bip01_Neck 0.000000 0.000000 0.000000 0.000000 0.000000 0.000000 10.000000 
L_humerus 0.000000 0.000000 0.000000 0.000000 0.000000 0.000000 10.000000 
R_humerus 0.000000 0.000000 0.000000 0.000000 0.000000 0.000000 10.000000 
weapon_bone 0.000000 0.000000 0.000000 0.000000 0.000000 0.000000 10.000000 
Bip01_Head 0.000000 0.000000 0.000000 0.000000 0.000000 0.000000 10.000000 
eye_left_bone 0.000000 0.000000 0.000000 0.000000 0.000000 0.000000 10.000000 
eye_right_bone 0.000000 0.000000 0.000000 0.000000 0.000000 0.000000 10.000000 
L_forearm 0.000000 0.000000 0.000000 0.000000 0.000000 0.000000 10.000000 
L_front_hand 0.000000 0.000000 0.000000 0.000000 0.000000 0.000000 10.000000 
L_weapon_bone 0.000000 0.000000 0.000000 0.000000 0.000000 0.000000 10.000000 
L_front_hand01_01 0.000000 0.000000 0.000000 0.000000 0.000000 0.000000 10.000000 
L_front_hand02_01 0.000000 0.000000 0.000000 0.000000 0.000000 0.000000 10.000000 
L_front_hand03_01 0.000000 0.000000 0.000000 0.000000 0.000000 0.000000 10.000000 
L_front_hand01_02 0.000000 0.000000 0.000000 0.000000 0.000000 0.000000 10.000000 
L_front_hand02_02 0.000000 0.000000 0.000000 0.000000 0.000000 0.000000 10.000000 
L_front_hand03_02 0.000000 0.000000 0.000000 0.000000 0.000000 0.000000 10.000000 
R_forearm 0.000000 0.000000 0.000000 0.000000 0.000000 0.000000 10.000000 
R_front_hand 0.000000 0.000000 0.000000 0.000000 0.000000 0.000000 10.000000 
R_weapon_bone 0.000000 0.000000 0.000000 0.000000 0.000000 0.000000 10.000000 
R_front_hand01_01 0.000000 0.000000 0.000000 0.000000 0.000000 0.000000 10.000000 
R_front_hand02_01 0.000000 0.000000 0.000000 0.000000 0.000000 0.000000 10.000000 
R_front_hand03_01 0.000000 0.000000 0.000000 0.000000 0.000000 0.000000 10.000000 
R_front_hand01_02 0.000000 0.000000 0.000000 0.000000 0.000000 0.000000 10.000000 
R_front_hand02_02 0.000000 0.000000 0.000000 0.000000 0.000000 0.000000 10.000000 
R_front_hand03_02 0.000000 0.000000 0.000000 0.000000 0.000000 0.000000 10.000000 
null_rope01_connect 0.000000 0.000000 0.000000 0.000000 0.000000 0.000000 10.000000 
Rope1_Seg01 0.000000 0.000000 0.000000 0.000000 0.000000 0.000000 10.000000 
Rope1_Seg02 0.000000 0.000000 0.000000 0.000000 0.000000 0.000000 10.000000 
Rope1_Seg03 0.000000 0.000000 0.000000 0.000000 0.000000 0.000000 10.000000 
Rope1_Seg04 0.000000 0.000000 0.000000 0.000000 0.000000 0.000000 10.000000 
Rope1_Seg05 0.000000 0.000000 0.000000 0.000000 0.000000 0.000000 10.000000 
Rope1_Seg06 0.000000 0.000000 0.000000 0.000000 0.000000 0.000000 10.000000 
Rope1_Seg07 0.000000 0.000000 0.000000 0.000000 0.000000 0.000000 10.000000 
Rope1_Seg09 0.000000 0.000000 0.000000 0.000000 0.000000 0.000000 10.000000 
L_mid_hand01 0.000000 0.000000 0.000000 0.000000 0.000000 0.000000 10.000000 
L_mid_hand02 0.000000 0.000000 0.000000 0.000000 0.000000 0.000000 10.000000 
L_mid_hand03 0.000000 0.000000 0.000000 0.000000 0.000000 0.000000 10.000000 
null_rope02_connect 0.000000 0.000000 0.000000 0.000000 0.000000 0.000000 10.000000 
Rope2_Seg01 0.000000 0.000000 0.000000 0.000000 0.000000 0.000000 10.000000 
Rope2_Seg02 0.000000 0.000000 0.000000 0.000000 0.000000 0.000000 10.000000 
Rope2_Seg03 0.000000 0.000000 0.000000 0.000000 0.000000 0.000000 10.000000 
Rope2_Seg04 0.000000 0.000000 0.000000 0.000000 0.000000 0.000000 10.000000 
Rope2_Seg05 0.000000 0.000000 0.000000 0.000000 0.000000 0.000000 10.000000 
Rope2_Seg06 0.000000 0.000000 0.000000 0.000000 0.000000 0.000000 10.000000 
Rope2_Seg07 0.000000 0.000000 0.000000 0.000000 0.000000 0.000000 10.000000 
Rope2_Seg09 0.000000 0.000000 0.000000 0.000000 0.000000 0.000000 10.000000 
R_mid_hand01 0.000000 0.000000 0.000000 0.000000 0.000000 0.000000 10.000000 
R_mid_hand02 0.000000 0.000000 0.000000 0.000000 0.000000 0.000000 10.000000 
R_mid_hand03 0.000000 0.000000 0.000000 0.000000 0.000000 0.000000 10.000000 
spine02 0.000000 0.000000 0.000000 0.000000 0.000000 0.000000 10.000000 
spine03 0.000000 0.000000 0.000000 0.000000 0.000000 0.000000 10.000000 
pelvis 0.000000 0.000000 0.000000 0.000000 0.000000 0.000000 10.000000 
null_rope03_connect 0.000000 0.000000 0.000000 0.000000 0.000000 0.000000 10.000000 
null_rope04_connect 0.000000 0.000000 0.000000 0.000000 0.000000 0.000000 10.000000 
Rope3_Seg01 0.000000 0.000000 0.000000 0.000000 0.000000 0.000000 10.000000 
Rope3_Seg02 0.000000 0.000000 0.000000 0.000000 0.000000 0.000000 10.000000 
Rope3_Seg03 0.000000 0.000000 0.000000 0.000000 0.000000 0.000000 10.000000 
Rope3_Seg04 0.000000 0.000000 0.000000 0.000000 0.000000 0.000000 10.000000 
Rope3_Seg05 0.000000 0.000000 0.000000 0.000000 0.000000 0.000000 10.000000 
Rope3_Seg06 0.000000 0.000000 0.000000 0.000000 0.000000 0.000000 10.000000 
Rope3_Seg07 0.000000 0.000000 0.000000 0.000000 0.000000 0.000000 10.000000 
Rope3_Seg08 0.000000 0.000000 0.000000 0.000000 0.000000 0.000000 10.000000 
Rope3_Seg09 0.000000 0.000000 0.000000 0.000000 0.000000 0.000000 10.000000 
R_rear_hand01 0.000000 0.000000 0.000000 0.000000 0.000000 0.000000 10.000000 
R_rear_hand02 0.000000 0.000000 0.000000 0.000000 0.000000 0.000000 10.000000 
R_rear_hand03 0.000000 0.000000 0.000000 0.000000 0.000000 0.000000 10.000000 
Rope4_Seg01 0.000000 0.000000 0.000000 0.000000 0.000000 0.000000 10.000000 
Rope4_Seg02 0.000000 0.000000 0.000000 0.000000 0.000000 0.000000 10.000000 
Rope4_Seg03 0.000000 0.000000 0.000000 0.000000 0.000000 0.000000 10.000000 
Rope4_Seg04 0.000000 0.000000 0.000000 0.000000 0.000000 0.000000 10.000000 
Rope4_Seg05 0.000000 0.000000 0.000000 0.000000 0.000000 0.000000 10.000000 
Rope4_Seg06 0.000000 0.000000 0.000000 0.000000 0.000000 0.000000 10.000000 
Rope4_Seg07 0.000000 0.000000 0.000000 0.000000 0.000000 0.000000 10.000000 
Rope4_Seg08 0.000000 0.000000 0.000000 0.000000 0.000000 0.000000 10.000000 
Rope4_Seg09 0.000000 0.000000 0.000000 0.000000 0.000000 0.000000 10.000000 
L_rear_hand01 0.000000 0.000000 0.000000 0.000000 0.000000 0.000000 10.000000 
L_rear_hand02 0.000000 0.000000 0.000000 0.000000 0.000000 0.000000 10.000000 
L_rear_hand03 0.000000 0.000000 0.000000 0.000000 0.000000 0.000000 10.000000 
#Beginning of Data. Separated by tabs
#Fr	Tx	Ty	Tz	Rx	Ry	Rz	SF
[MASTER]
5 -0.000100 680.313354 785.071533 0.001660 0.001660 0.001660 1038.828003
6 -0.000125 849.263000 1246.999146 0.001660 0.001660 0.001660 1508.726196
[root]
5 -21.329119 -11.585922 1460.579346 -88.051559 -6.033380 -90.988670 1460.781006
6 -23.557631 -17.830135 1466.239380 -86.591621 -5.099267 -91.588280 1466.536865
[chest]
5 -84.512650 -34.090519 0.000000 -1.356466 -1.279739 -155.337234 91.129311
6 -84.512650 -34.090519 0.000000 -1.309047 -1.380674 -151.111115 91.129311
[L_mid_tent01]
5 27.299082 22.179182 -249.918701 -3.041647 13.262997 59.674149 252.381683
6 27.299088 22.179201 -249.918701 1.042032 11.399743 71.170639 252.381683
[R_mid_tent01]
5 23.228794 24.509907 226.238495 171.319855 -7.362206 61.026348 228.744751
6 23.228794 24.509907 226.238495 167.409210 -5.019568 68.964142 228.744751
[spine01]
5 -0.361383 -0.195265 0.000000 0.001953 0.001303 22.581146 0.410763
6 -0.361383 -0.195265 0.000000 0.001953 0.001301 22.651760 0.410763
[Bip01_Neck]
5 165.484543 71.581718 0.000119 176.643677 -1.657967 43.431911 180.302734
6 165.484543 71.581718 0.000119 176.643677 -1.657967 43.431911 180.302734
[L_humerus]
5 -13.983130 -135.272980 -120.471481 -6.729643 65.033463 83.162766 181.680161
6 -13.983130 -135.272980 -120.471481 -6.865029 64.539772 83.011009 181.680161
[R_humerus]
5 -13.983309 -135.273102 125.287651 26.080000 -65.876434 69.628563 184.909012
6 -13.983309 -135.273102 125.287651 25.886854 -65.357956 69.828217 184.909012
[weapon_bone]
5 235.964890 -300.705902 0.000000 0.000000 -89.951546 -128.212341 382.234833
6 235.964890 -300.705902 0.000000 0.000000 -89.951546 -128.212341 382.234833
[Bip01_Head]
5 213.433075 185.747375 11.366854 4.987259 10.061257 -43.762226 283.169495
6 213.457947 185.677628 12.267593 4.983087 9.611635 -43.777290 283.180115
[eye_left_bone]
5 -24.626970 125.451866 -64.772606 0.000000 -90.000000 -99.840431 143.318359
6 -24.626970 125.451866 -64.772606 0.000000 -90.000000 -99.840431 143.318359
[eye_right_bone]
5 -24.626970 125.451866 64.327362 0.000000 -89.965736 80.156380 143.117676
6 -24.626970 125.451866 64.327362 0.000000 -89.965736 80.156380 143.117676
[L_forearm]
5 322.776093 0.000000 -0.000119 0.000422 -0.002309 -110.723526 322.776093
6 322.776093 0.000000 -0.000119 0.000426 -0.002308 -110.891754 322.776093
[L_front_hand]
5 241.149185 -0.042021 -3.300071 -178.667953 -1.835447 -27.422350 241.171753
6 241.149185 -0.042021 -3.300071 -178.667953 -1.835447 -27.422350 241.171753
[L_weapon_bone]
5 156.183838 0.000000 0.000000 0.000014 0.000007 0.000001 156.183838
6 156.183838 0.000000 0.000000 0.000014 0.000007 0.000001 156.183838
[L_front_hand01_01]
5 86.095154 20.947098 -0.655860 -0.358124 -0.483585 74.301987 88.609184
6 86.095154 20.947098 -0.655860 -0.349230 -0.490139 73.139862 88.609184
[L_front_hand02_01]
5 86.935165 -11.437475 24.513514 152.741364 -59.405788 -59.444736 91.046425
6 86.935165 -11.437475 24.513514 151.025055 -58.854893 -57.448074 91.046425
[L_front_hand03_01]
5 86.637497 -14.123976 -20.424902 -152.381119 57.628048 -60.890831 90.126129
6 86.637497 -14.123976 -20.424902 -150.781433 57.074539 -58.996449 90.126129
[L_front_hand01_02]
5 71.020905 -0.000179 0.000030 0.000319 -0.002325 -105.611748 71.020905
6 71.020905 -0.000179 0.000030 0.000318 -0.002326 -105.574486 71.020905
[L_front_hand02_02]
5 71.020927 -0.000119 0.000060 0.000319 -0.002325 -105.611748 71.020927
6 71.020927 -0.000119 0.000060 0.000318 -0.002326 -105.574486 71.020927
[L_front_hand03_02]
5 71.020905 -0.000060 0.000060 0.000319 -0.002325 -105.611748 71.020905
6 71.020905 -0.000060 0.000060 0.000318 -0.002326 -105.574486 71.020905
[R_forearm]
5 322.776428 -0.000060 0.000030 0.201342 0.067472 -109.377296 322.776428
6 322.776428 -0.000060 0.000030 0.201242 0.067769 -109.546898 322.776428
[R_front_hand]
5 238.847015 -0.006795 2.210259 -2.635298 -10.645461 -26.312506 238.857239
6 238.847015 -0.006795 2.210259 -2.635298 -10.645461 -26.312506 238.857239
[R_weapon_bone]
5 155.664093 0.002503 -0.000030 0.003487 0.001180 -90.988930 155.664078
6 155.664093 0.002503 -0.000030 0.003487 0.001180 -90.988930 155.664078
[R_front_hand01_01]
5 87.624611 14.231146 22.918642 -153.171539 -59.529896 60.052429 91.683487
6 87.624611 14.231146 22.918642 -151.601074 -59.040489 58.224773 91.683487
[R_front_hand02_01]
5 89.356956 14.367283 -19.491137 153.232147 57.885738 62.134083 92.579636
6 89.356956 14.367283 -19.491137 151.761566 57.399368 60.393955 92.579636
[R_front_hand03_01]
5 87.286232 -22.307278 -0.143439 0.154710 -0.427505 -74.818459 90.091743
6 87.286232 -22.307278 -0.143439 0.146836 -0.431871 -73.769867 90.091743
[R_front_hand01_02]
5 71.020905 0.000060 0.000119 0.002323 -0.000334 106.381714 71.020905
6 71.020905 0.000060 0.000119 0.002323 -0.000334 106.381714 71.020905
[R_front_hand02_02]
5 71.020844 -0.000030 -0.000119 0.002323 -0.000334 106.381714 71.020836
6 71.020844 -0.000030 -0.000119 0.002323 -0.000334 106.381714 71.020836
[R_front_hand03_02]
5 71.020905 0.000000 0.000030 0.002323 -0.000334 106.381714 71.020905
6 71.020905 0.000000 0.000030 0.002323 -0.000334 106.381714 71.020905
[null_rope01_connect]
5 328.732483 0.000000 -0.000238 -149.831833 -77.777374 -174.326340 328.732483
6 328.732483 0.000000 -0.000238 -134.004181 -80.481651 157.803696 328.732483
[Rope1_Seg01]
5 0.000070 -0.000032 0.000127 -57.966492 56.440033 -65.873451 0.000149
6 0.000068 -0.000030 0.000121 -56.587975 61.920933 -60.236660 0.000142
[Rope1_Seg02]
5 139.999863 -0.000179 0.000000 -1.392664 2.328864 -0.209687 139.999863
6 139.999863 -0.000179 0.000000 -1.095684 0.919487 1.323394 139.999863
[Rope1_Seg03]
5 139.999924 0.000060 -0.000060 -2.359442 3.520494 -0.184687 139.999924
6 139.999924 0.000060 -0.000060 -1.510831 1.268373 1.899294 139.999924
[Rope1_Seg04]
5 139.999924 -0.000060 -0.000119 -12.180057 12.461957 3.020502 139.999924
6 139.999924 -0.000060 -0.000119 -3.650874 3.402729 4.760873 139.999924
[Rope1_Seg05]
5 139.999832 0.000119 -0.000060 14.548879 -5.834390 -10.450128 139.999832
6 139.999832 0.000119 -0.000060 -5.804865 5.633488 9.579584 139.999832
[Rope1_Seg06]
5 139.999954 0.000119 -0.000060 15.675723 -11.133223 -7.315958 139.999954
6 139.999954 0.000119 -0.000060 12.935230 -10.685269 -16.212288 139.999954
[Rope1_Seg07]
5 139.999985 0.000060 0.000000 4.951067 -4.550117 -1.934146 139.999985
6 139.999985 0.000060 0.000000 6.514908 -6.896257 -6.880956 139.999985
[Rope1_Seg09]
5 121.602913 0.000119 -0.000089 -89.793175 -1.359789 0.847147 121.602913
6 121.602913 0.000119 -0.000089 -89.793175 -1.359789 0.847147 121.602913
[L_mid_hand01]
5 103.859421 1.038730 8.195221 115.408714 -54.701881 -21.722248 104.187431
6 103.859421 1.038730 8.195221 112.493240 -49.600185 -18.031643 104.187431
[L_mid_hand02]
5 105.572853 -4.139662 -10.864139 -156.174301 38.799179 -54.227295 106.211075
6 105.572853 -4.139662 -10.864139 -152.303986 36.371010 -47.886745 106.211075
[L_mid_hand03]
5 104.641464 17.579376 -3.913581 -10.556284 15.605946 59.190216 106.179977
6 104.641464 17.579376 -3.913581 -12.027911 14.512395 53.523804 106.179977
[null_rope02_connect]
5 328.732849 0.000179 -0.000119 -105.374565 79.067368 38.847988 328.732849
6 328.732849 0.000179 -0.000119 -100.243652 77.587601 52.634106 328.732849
[Rope2_Seg01]
5 0.000045 0.000127 0.000000 126.063271 69.416168 -112.775604 0.000135
6 0.000046 0.000121 0.000000 120.942108 75.465370 -120.603806 0.000129
[Rope2_Seg02]
5 139.999741 -0.000060 -0.000119 0.075823 7.040260 -3.789927 139.999756
6 139.999741 -0.000060 -0.000119 0.480908 3.209991 -2.854810 139.999756
[Rope2_Seg03]
5 140.000107 0.000030 0.000000 1.158800 8.619587 -6.059342 140.000107
6 140.000107 0.000030 0.000000 0.731320 3.754888 -3.414050 140.000107
[Rope2_Seg04]
5 139.999802 0.000000 -0.000060 9.269967 10.511385 -13.024655 139.999802
6 139.999802 0.000000 -0.000060 3.922423 5.680613 -9.188355 139.999802
[Rope2_Seg05]
5 139.999985 -0.000060 0.000119 -18.205879 5.726623 10.979954 139.999985
6 139.999985 -0.000060 0.000119 4.404709 4.796634 -7.532469 139.999985
[Rope2_Seg06]
5 139.999893 -0.000030 -0.000119 -24.102930 -5.453206 31.962496 139.999893
6 139.999893 -0.000030 -0.000119 -15.084498 2.937099 17.758907 139.999893
[Rope2_Seg07]
5 139.999893 0.000060 -0.000060 -5.328382 -7.097870 13.826421 139.999893
6 139.999893 0.000060 -0.000060 -14.443727 -5.091779 29.788128 139.999893
[Rope2_Seg09]
5 121.338966 0.000089 -0.000060 33.793236 -1.359788 -0.847141 121.338966
6 121.338966 0.000089 -0.000060 33.793236 -1.359788 -0.847141 121.338966
[R_mid_hand01]
5 104.680779 11.144459 -10.335981 -22.984858 42.734222 60.718655 105.778534
6 104.680779 11.144459 -10.335981 -25.740593 41.350704 56.606117 105.778534
[R_mid_hand02]
5 104.070427 2.443552 8.231699 58.419544 -61.729733 28.969135 104.424065
6 104.070427 2.443552 8.231699 61.371151 -58.827457 25.571609 104.424065
[R_mid_hand03]
5 106.028137 -11.221827 -5.996406 -175.069138 15.041782 -68.893341 106.788818
6 106.028137 -11.221827 -5.996406 -174.179749 14.727765 -65.439743 106.788818
[spine02]
5 129.756927 0.001550 0.000119 0.490331 -4.030063 -14.799002 129.756927
6 129.756927 0.001550 0.000119 0.508598 -4.027733 -15.039197 129.756927
[spine03]
5 78.614082 0.081558 -4.899007 1.972440 3.790970 17.645836 78.766624
6 78.614090 0.081539 -4.899008 1.982313 3.787615 17.796371 78.766632
[pelvis]
5 169.435242 0.051022 0.000000 -0.069082 -0.178225 16.463209 169.435257
6 169.435242 0.051022 0.000000 -0.069556 -0.178041 16.768087 169.435257
[null_rope03_connect]
5 -1.257226 -2.466202 137.391083 -14.311277 -86.693817 68.475403 137.418976
6 -1.257226 -2.466202 137.391083 -15.931719 -85.136154 68.920471 137.418976
[null_rope04_connect]
5 -1.259640 -2.480268 -137.844437 -14.311277 -86.693817 68.475403 137.872513
6 -1.259640 -2.480268 -137.844437 -15.931719 -85.136154 68.920471 137.872513
[Rope3_Seg01]
5 0.000010 0.000032 -0.000127 -153.225449 47.374718 -101.713158 0.000131
6 0.000010 0.000030 -0.000121 -155.658859 53.842499 -100.643501 0.000125
[Rope3_Seg02]
5 139.999924 -0.000119 0.000060 -1.476559 -6.673747 -3.207432 139.999924
6 139.999924 -0.000119 0.000060 -1.709391 -6.205208 -1.698909 139.999924
[Rope3_Seg03]
5 139.999924 -0.000119 0.000119 -0.958708 -7.540638 -4.089683 139.999924
6 139.999924 -0.000119 0.000119 -1.311230 -6.639379 -2.052757 139.999924
[Rope3_Seg04]
5 139.999924 0.000119 0.000000 0.401552 -12.510810 -9.456312 139.999924
6 139.999924 0.000119 0.000000 -0.476091 -11.176951 -6.300845 139.999924
[Rope3_Seg05]
5 139.999924 -0.000238 0.000060 0.131818 -1.509022 1.760813 139.999924
6 139.999924 -0.000238 0.000060 0.037364 -5.653557 -1.525354 139.999924
[Rope3_Seg06]
5 139.999893 -0.000119 -0.000060 1.910068 10.536519 14.165822 139.999893
6 139.999893 -0.000119 -0.000060 1.009577 6.653946 10.125415 139.999893
[Rope3_Seg07]
5 139.999771 0.000060 -0.000119 1.137070 6.227698 8.710186 139.999771
6 139.999771 0.000060 -0.000119 1.641855 8.543361 11.640905 139.999771
[Rope3_Seg08]
5 139.999985 -0.000060 0.000000 0.695680 3.319220 4.807782 139.999985
6 139.999985 -0.000060 0.000000 0.614363 3.843099 5.997869 139.999985
[Rope3_Seg09]
5 90.185997 -0.000179 -0.000060 89.793228 -1.359877 -0.847183 90.185997
6 90.185997 -0.000179 -0.000060 89.793228 -1.359877 -0.847183 90.185997
[R_rear_hand01]
5 103.366196 -6.073594 -10.757982 -173.471771 23.840069 -63.595013 104.101845
6 103.366196 -6.073594 -10.757982 -171.684540 23.302565 -59.125771 104.101845
[R_rear_hand02]
5 100.509819 12.039542 -7.992327 -19.370905 34.238888 61.013897 101.543350
6 100.509819 12.039542 -7.992327 -21.930750 32.777496 56.381863 101.543350
[R_rear_hand03]
5 101.539970 5.215704 5.435467 77.523743 -62.710114 14.990737 101.819031
6 101.539970 5.215704 5.435467 79.009171 -58.663548 13.282337 101.819031
[Rope4_Seg01]
5 -0.000017 -0.000032 -0.000229 65.465897 42.505733 -83.184830 0.000232
6 -0.000017 -0.000030 -0.000248 70.195709 43.508675 -77.239151 0.000250
[Rope4_Seg02]
5 139.999985 0.000060 0.000119 3.171381 -4.447682 -10.309868 139.999985
6 139.999985 0.000060 0.000119 5.681417 -5.096350 -15.558420 139.999985
[Rope4_Seg03]
5 139.999924 0.000000 -0.000238 1.768854 -4.716355 -9.130064 139.999924
6 139.999924 0.000000 -0.000238 2.341749 -5.404620 -11.378483 139.999924
[Rope4_Seg04]
5 139.999985 0.000000 0.000119 1.202530 -9.066993 -12.142491 139.999985
6 139.999985 0.000000 0.000119 1.053377 -8.066405 -11.485340 139.999985
[Rope4_Seg05]
5 139.999802 -0.000060 -0.000119 -0.178985 -0.646292 -3.059126 139.999802
6 139.999802 -0.000060 -0.000119 -0.104391 -0.356776 -2.480953 139.999802
[Rope4_Seg06]
5 139.999924 0.000000 0.000060 0.678105 9.376204 6.303036 139.999924
6 139.999924 0.000000 0.000060 0.364875 6.420801 3.911356 139.999924
[Rope4_Seg07]
5 139.999802 0.000000 0.000000 0.733218 15.325389 11.697730 139.999802
6 139.999802 0.000000 0.000000 1.031259 16.212767 12.366455 139.999802
[Rope4_Seg08]
5 139.999924 0.000000 0.000119 -1.939777 7.486101 5.130978 139.999924
6 139.999924 0.000000 0.000119 -2.097757 10.969027 7.792306 139.999924
[Rope4_Seg09]
5 90.185791 0.000060 0.000060 -135.617828 2.228885 0.850567 90.185791
6 90.185791 0.000060 0.000060 -135.617828 2.228885 0.850567 90.185791
[L_rear_hand01]
5 101.696655 -8.392275 -7.654577 -28.015862 -27.942142 135.607529 102.329041
6 101.696655 -8.392275 -7.654577 -30.719053 -24.879360 141.681381 102.329041
[L_rear_hand02]
5 102.726799 -1.568258 5.773216 81.577332 47.415264 169.913025 102.900848
6 102.726799 -1.568258 5.773216 82.428497 41.230476 171.131027 102.900848
[L_rear_hand03]
5 104.552910 9.721220 -10.420293 -167.078079 -21.194330 -132.993347 105.519653
6 104.552910 9.721220 -10.420293 -164.822937 -19.676035 -139.457687 105.519653
